<svg xmlns="http://www.w3.org/2000/svg" viewBox="0 0 1200 720"><rect width="1200" height="720" fill="#f4f7fb"/><rect x="290" width="620" height="720" rx="0" fill="#fff"/><rect x="290" width="620" height="98" rx="0 0 28 28" fill="#0878cf"/><circle cx="355" cy="48" r="25" fill="#fff"/><text x="395" y="47" fill="#fff" font-family="Arial" font-size="23" font-weight="700">Nicolás</text><text x="395" y="70" fill="#d7efff" font-family="Arial" font-size="14">099 999 9999</text><rect x="330" y="130" width="540" height="145" rx="24" fill="#ff8740"/><text x="362" y="170" fill="#fff" font-family="Arial" font-size="15" font-weight="700">OFERTA ESPECIAL</text><text x="362" y="210" fill="#fff" font-family="Arial" font-size="30" font-weight="700">Duplica tus megas</text><text x="362" y="246" fill="#fff" font-family="Arial" font-size="30" font-weight="700">por 30 días</text><rect x="330" y="315" width="540" height="340" rx="24" fill="#fff" stroke="#e7edf4" stroke-width="3"/><text x="365" y="365" fill="#718096" font-family="Arial" font-size="15">TU CUENTA</text><text x="365" y="405" fill="#1c3150" font-family="Arial" font-size="24" font-weight="700">SALDO</text><text x="365" y="455" fill="#182b47" font-family="Arial" font-size="42" font-weight="700">$12,50</text><line x1="365" y1="480" x2="835" y2="480" stroke="#e4e9ef"/><text x="365" y="520" fill="#718096" font-family="Arial" font-size="14">Vence 30/08/2026</text><circle cx="440" cy="590" r="43" fill="none" stroke="#e8eef5" stroke-width="14"/><path d="M440 547a43 43 0 1 1-36 67" fill="none" stroke="#0878cf" stroke-width="14"/><text x="420" y="597" fill="#243b59" font-family="Arial" font-size="16" font-weight="700">68%</text></svg>